<svg width="250" height="362" viewBox="0 0 250 362" fill="none" xmlns="http://www.w3.org/2000/svg">
<path d="M76 299L87 99H154L173 299H76Z" fill="#DCE1E7"/>
<rect x="87" y="64" width="67" height="35" fill="#FAC76C"/>
<rect x="94" y="64" width="53" height="35" fill="#F3DFAC"/>
<line x1="100.999" y1="103.051" x2="95.9994" y2="299.051" stroke="#5DA6DB" stroke-width="4"/>
<line x1="121.178" y1="102.981" x2="123" y2="298.981" stroke="#5DA6DB" stroke-width="4"/>
<line x1="140.176" y1="106.908" x2="148.998" y2="298.908" stroke="#5DA6DB" stroke-width="4"/>
<mask id="mask0" mask-type="alpha" maskUnits="userSpaceOnUse" x="76" y="98" width="97" height="200">
<path d="M76 298L87 98H154L173 298H76Z" fill="#DCE1E7"/>
<path d="M76 298L87 98H154L173 298H76Z" fill="url(#paint0_linear)"/>
</mask>
<g mask="url(#mask0)">
<path d="M67 299.45L156 98H167.089L177 298L67 299.45Z" fill="black" fill-opacity="0.1"/>
</g>
<rect x="82" y="99" width="77" height="8" fill="#5DA6DB"/>
<path d="M18.4716 348L0 302L61.6201 244L75.3013 288L92 218.5L158.441 250L166.86 279L201 262L250 294L214.218 348H18.4716Z" fill="#676565"/>
<mask id="mask1" mask-type="alpha" maskUnits="userSpaceOnUse" x="0" y="218" width="250" height="130">
<path d="M18.4716 348L0 302L61.6201 244L75.3013 288L92 218.5L158.441 250L166.86 279L201 262L250 294L214.218 348H18.4716Z" fill="#6BFF71"/>
</mask>
<g mask="url(#mask1)">
<path d="M39 313H1L6 326H48L39 313Z" fill="#F0F0F0"/>
<path d="M-61 267H253V309L212.5 312.5L176.5 302L135 314L85.5 302L66.5 309.5L-4.75 302H-61V267Z" fill="#494949"/>
<path d="M-61 214H243V276L190.5 293L135 271L106.5 286.5L91.5 269L47.5 290L15 275L-61 283V214Z" fill="#262626"/>
<path d="M-61 210H228V262L196.375 275L161.5 229L108.5 247L79.5 229L53.25 272L26.125 262.5L-61 262V210Z" fill="#010101"/>
</g>
<circle cx="73" cy="348" r="9" fill="#C4C4C4" stroke="black" stroke-width="9"/>
<circle cx="168" cy="348" r="9" fill="#C4C4C4" stroke="black" stroke-width="9"/>
<line x1="120.097" y1="0.753601" x2="120.097" y2="52" stroke="#DCE1E7" stroke-width="2"/>
<path d="M157 7.91304L121.75 14.7659L121.75 1.06015L157 7.91304Z" fill="#5DA6DB"/>
<rect x="82" y="45" width="77" height="19" fill="#5DA6DB"/>
<defs>
<linearGradient id="paint0_linear" x1="61" y1="98" x2="173" y2="98" gradientUnits="userSpaceOnUse">
<stop stop-color="#8E8E8E"/>
<stop offset="1" stop-color="white" stop-opacity="0"/>
</linearGradient>
</defs>
</svg>
